<svg width="32" height="32" viewBox="0 0 32 32" fill="none" xmlns="http://www.w3.org/2000/svg">
<path d="M26.5 4.1L24.4 2L22.3 4.1L20.2 2L18.1 4.1L16 2L13.9 4.1L11.8 2L9.69999 4.1L7.59999 2L5.49999 4.1L3.39999 2V30L5.49999 27.9L7.59999 30L9.69999 27.9L11.8 30L13.9 27.9L16 30L18.1 27.9L20.2 30L22.3 27.9L24.4 30L26.5 27.9L28.6 30V2L26.5 4.1ZM25.8 25.926H6.19999V6.074H25.8V25.926ZM7.59999 20.2H24.4V23H7.59999V20.2ZM7.59999 14.6H24.4V17.4H7.59999V14.6ZM7.59999 9H24.4V11.8H7.59999V9Z" fill="#3A4355"/>
</svg>
