<svg xmlns="http://www.w3.org/2000/svg" width="32" height="32" viewBox="0 0 32 32"><path d="M25.07 5L2 12.77l3.63 9.87v-5.65l-.12-.37.12-.22v-3.26h1.8l.26-.44L20.6 8.34l1 .4c0 .1 0 .2.03.3.27.73 1.16 1.08 2 .8.1-.03.17-.1.26-.15l1 .4 1.1 3.05h2.06L25.07 5zm-2.6 6.97c-.2 0-.44 0-.64.07-.55.19-.88.63-1 1.1h3.02c-.01-.09 0-.17-.04-.26-.2-.54-.72-.9-1.34-.91zm-6.49.25c-.34.03-.68.1-1.03.22-.49.17-.94.4-1.3.7h5.08a3.76 3.76 0 00-2.75-.92zm-10.43.84v14.08H30V13.06H5.55zm5.39 1.73H24.6l.8.73c-.01.1-.07.16-.07.26 0 .77.73 1.39 1.6 1.39.11 0 .2-.02.31-.04l.8.7v4.55l-.8.7c-.1-.02-.2-.04-.3-.04-.88 0-1.61.61-1.61 1.4 0 .09.06.16.08.25l-.8.73H10.93l-.8-.73c.02-.1.07-.16.07-.26 0-.78-.73-1.4-1.6-1.4-.1 0-.2.03-.3.04l-.8-.7v-4.54l.8-.7c.1.02.2.04.3.04.87 0 1.6-.62 1.6-1.4 0-.09-.05-.16-.07-.25l.8-.73zm6.91 2.05c-2.02 0-3.66 1.47-3.66 3.26 0 1.8 1.64 3.27 3.66 3.27 2.03 0 3.67-1.47 3.67-3.27 0-1.79-1.64-3.26-3.67-3.26zm-6.8 1.87c-.87 0-1.6.62-1.6 1.4 0 .77.73 1.39 1.6 1.39.88 0 1.6-.62 1.6-1.4 0-.77-.72-1.39-1.6-1.39zm13.45 0c-.88 0-1.6.62-1.6 1.4 0 .77.72 1.39 1.6 1.39.88 0 1.6-.62 1.6-1.4 0-.77-.72-1.39-1.6-1.39z"/></svg>