<svg xmlns="http://www.w3.org/2000/svg" viewbox="0 0 32 32"><path d="M16 9.54a12.46 12.46 0 0 1 11.23 6.97A12.42 12.42 0 0 1 16 23.5c-4.84 0-9.13-2.7-11.23-6.98A12.4 12.4 0 0 1 16 9.54zM16 7C9.64 7 4.2 10.95 2 16.51A15.02 15.02 0 0 0 16 26a15.1 15.1 0 0 0 14-9.49A15.05 15.05 0 0 0 16 7zm0 6.34a3.19 3.19 0 0 1 3.18 3.17A3.17 3.17 0 0 1 16 19.7a3.19 3.19 0 0 1-3.18-3.18A3.17 3.17 0 0 1 16 13.34zm0-2.53a5.75 5.75 0 0 0-5.73 5.72 5.7 5.7 0 0 0 5.74 5.7 5.74 5.74 0 0 0 5.73-5.72 5.7 5.7 0 0 0-5.74-5.7z"/></svg>
