<svg width="32" height="32" viewBox="0 0 32 32" fill="none" xmlns="http://www.w3.org/2000/svg">
<path d="M26.8889 5.11111V26.8889H5.11111V5.11111H26.8889ZM26.8889 2H5.11111C4.28599 2 3.49467 2.32778 2.91122 2.91122C2.32778 3.49467 2 4.28599 2 5.11111V26.8889C2 27.714 2.32778 28.5053 2.91122 29.0888C3.49467 29.6722 4.28599 30 5.11111 30H26.8889C27.714 30 28.5053 29.6722 29.0888 29.0888C29.6722 28.5053 30 27.714 30 26.8889V5.11111C30 4.28599 29.6722 3.49467 29.0888 2.91122C28.5053 2.32778 27.714 2 26.8889 2ZM16 16C13.4333 16 11.3333 13.9 11.3333 11.3333C11.3333 8.76667 13.4333 6.66667 16 6.66667C18.5667 6.66667 20.6667 8.76667 20.6667 11.3333C20.6667 13.9 18.5667 16 16 16ZM16 9.77778C15.1444 9.77778 14.4444 10.4778 14.4444 11.3333C14.4444 12.1889 15.1444 12.8889 16 12.8889C16.8556 12.8889 17.5556 12.1889 17.5556 11.3333C17.5556 10.4778 16.8556 9.77778 16 9.77778ZM25.3333 25.3333H6.66667V22.9533C6.66667 19.0644 12.8422 17.3844 16 17.3844C19.1578 17.3844 25.3333 19.0644 25.3333 22.9533V25.3333ZM10.26 22.2222H21.74C20.6667 21.3511 18.0378 20.48 16 20.48C13.9622 20.48 11.3178 21.3511 10.26 22.2222Z" fill="#3A4355"/>
</svg>
