<svg width="32" height="32" viewBox="0 0 32 32" fill="none" xmlns="http://www.w3.org/2000/svg">
<path d="M26.1818 10.9109H22.3636V5.82H4.54545C3.87036 5.82 3.22291 6.08818 2.74555 6.56555C2.26818 7.04291 2 7.69036 2 8.36545V22.3655H4.54545C4.54545 23.3781 4.94773 24.3493 5.66377 25.0653C6.37982 25.7814 7.35099 26.1836 8.36364 26.1836C9.37628 26.1836 10.3475 25.7814 11.0635 25.0653C11.7795 24.3493 12.1818 23.3781 12.1818 22.3655H19.8182C19.8182 23.3781 20.2205 24.3493 20.9365 25.0653C21.6525 25.7814 22.6237 26.1836 23.6364 26.1836C24.649 26.1836 25.6202 25.7814 26.3362 25.0653C27.0523 24.3493 27.4545 23.3781 27.4545 22.3655H30V16.0018L26.1818 10.9109ZM25.5455 12.82L28.04 16.0018H22.3636V12.82H25.5455ZM8.36364 23.6382C7.66364 23.6382 7.09091 23.0655 7.09091 22.3655C7.09091 21.6655 7.66364 21.0927 8.36364 21.0927C9.06364 21.0927 9.63636 21.6655 9.63636 22.3655C9.63636 23.0655 9.06364 23.6382 8.36364 23.6382ZM11.1891 19.82C10.8345 19.4209 10.3993 19.1015 9.91231 18.8828C9.42531 18.6641 8.8975 18.551 8.36364 18.551C7.82977 18.551 7.30197 18.6641 6.81497 18.8828C6.32797 19.1015 5.89282 19.4209 5.53818 19.82H4.54545V8.36545H19.8182V19.82H11.1891ZM23.6364 23.6382C22.9364 23.6382 22.3636 23.0655 22.3636 22.3655C22.3636 21.6655 22.9364 21.0927 23.6364 21.0927C24.3364 21.0927 24.9091 21.6655 24.9091 22.3655C24.9091 23.0655 24.3364 23.6382 23.6364 23.6382Z" fill="#3A4355"/>
</svg>
