<svg xmlns="http://www.w3.org/2000/svg" width="1152" height="132" fill="none"><path fill="#3a4355" d="M1119.88 112H1112V96h32c-8.88 13.67-16.33 16-24.12 16zm0-2c5.63 0 12.25-.99 20.32-12H1114v12h5.88z"/><path fill="#3a4355" d="M1114 114.69l6 9.31h-10l-3-2.07h-16l-3 2.07h-10l6-9.31v-2.07c-8-9.31-28-14.48-28-14.48V94h58v20.69z"/><path fill="#3a4355" d="M1112 104h7.22c3.9 0 20.34-1.17 24.78-8-8.88 13.67-16.33 16-24.12 16H1112v-8zM1056 25h-25l-15-6v-4l15-6h25l2 1v14l-2 1z"/><path fill="#3a4355" d="M1036 19h10v56a5 5 0 0 1-10 0V19zm8 2h-6v54a3 3 0 0 0 6 0V21z"/><path fill="#3a4355" d="M1040 79V24h5v51.5l-2.42 3.19-2.58.31zM975.88 112H968V96h32c-8.88 13.67-16.33 16-24.13 16zm0-2c5.63 0 12.25-.99 20.32-12H970v12h5.88z"/><path fill="#3a4355" d="M970 114.69l6 9.31h-10l-3-2.07h-16l-3 2.07h-10l6-9.31v-2.07c-8-9.31-28-14.48-28-14.48V94h58v20.69z"/><path fill="#3a4355" d="M968 104h7.22c3.9 0 20.34-1.17 24.78-8-8.88 13.67-16.33 16-24.13 16H968v-8zM920.42 28l-24.67-4.32L882 15.21l.7-3.92L898.54 8l24.66 4.32 1.8 1.33-2.43 13.72-2.15.63z"/><path fill="#3a4355" d="M901.98 19L912 20.74l-9.9 55.13a5.08 5.08 0 0 1-5.9 4.05 5 5 0 0 1-4.12-5.79l9.9-55.13zm7.66 3.36l-6.01-1.04-9.55 53.16a3 3 0 0 0 2.48 3.48c1.66.28 3.25-.8 3.54-2.44l9.54-53.16z"/><path fill="#3a4355" d="M896 78.84L905.78 24l5.22.91-9.16 51.36-3.1 2.73-2.74-.16zM831.88 112H824V96h32c-8.88 13.67-16.33 16-24.13 16zm0-2c5.63 0 12.25-.99 20.32-12H826v12h5.88z"/><path fill="#3a4355" d="M826 114.69l6 9.31h-10l-3-2.07h-16l-3 2.07h-10l6-9.31v-2.07c-8-9.31-28-14.48-28-14.48V94h58v20.69z"/><path fill="#3a4355" d="M824 104h7.22c3.9 0 20.34-1.17 24.78-8-8.88 13.67-16.33 16-24.13 16H824v-8zM799 50.3l-17.65-17.65L775 17.82l2.82-2.82 14.83 6.35L810.29 39l.71 2.12-9.88 9.88-2.12-.7z"/><path fill="#3a4355" d="M788.95 32l7.05 7.05-39.49 39.49a4.99 4.99 0 1 1-7.05-7.05L788.95 32zm4.23 7.05l-4.23-4.23-38.08 38.08a3 3 0 0 0 4.23 4.23l38.08-38.08z"/><path fill="#3a4355" d="M750 77l39-39 4 3-38 38h-4l-1-2zM687.88 112H680V96h32c-8.88 13.67-16.33 16-24.13 16zm0-2c5.63 0 12.25-.99 20.32-12H682v12h5.88z"/><path fill="#3a4355" d="M682 114.69l6 9.31h-10l-3-2.07h-16l-3 2.07h-10l6-9.31v-2.07c-8-9.31-28-14.48-28-14.48V94h58v20.69z"/><path fill="#3a4355" d="M680 104h7.22c3.9 0 20.34-1.17 24.78-8-8.88 13.67-16.33 16-24.13 16H680v-8zM661.32 80.2L657 55.54l3.29-15.84 3.92-.7 8.47 13.75L677 77.42l-.63 2.14L662.64 82l-1.32-1.8z"/><path fill="#3a4355" d="M663.26 60L665 70.02l-55.13 9.9a5 5 0 0 1-5.8-4.13 5.08 5.08 0 0 1 4.06-5.9L663.26 60zm-.58 8.37l-1.04-6.01-53.16 9.54a3.05 3.05 0 0 0-2.44 3.54 3 3 0 0 0 3.48 2.48l53.16-9.55z"/><path fill="#3a4355" d="M605 74.52L660.09 65l.91 5.08L609.41 79l-3.63-1.9-.78-2.58zM543.88 112H536V96h32c-8.88 13.67-16.33 16-24.13 16zm0-2c5.63 0 12.25-.99 20.32-12H538v12h5.88z"/><path fill="#3a4355" d="M538 114.69l6 9.31h-10l-3-2.07h-16l-3 2.07h-10l6-9.31v-2.07c-8-9.31-28-14.48-28-14.48V94h58v20.69z"/><path fill="#3a4355" d="M536 104h7.22c3.9 0 20.34-1.17 24.78-8-8.88 13.67-16.33 16-24.13 16H536v-8zM515 90V65l6-15h4l6 15v25l-1 2h-14l-1-2z"/><path fill="#3a4355" d="M521 70v10h-56a5 5 0 1 1 0-10h56zm-2 8v-6h-54a3 3 0 0 0 0 6h54z"/><path fill="#3a4355" d="M461 74h55v5h-51.5l-3.19-2.42L461 74zM540.47 54L553 59.3l-3.8 4.7-10.2-5.28 1.47-4.72zm8.22 7.52l1.15-1.42-8.14-3.45-.34 1.09 7.33 3.78zM558.81 64L566 75.45 560.93 79 554 68.03l4.81-4.03zm2.65 12.17l1.86-1.3-4.95-7.9-1.78 1.5 4.87 7.7zM568 82l-.78 10H562v-8.29l6-1.71zm-2.72 8.04l.42-5.33-1.61.46v4.87h1.19zM399.88 112H392V96h32c-8.88 13.67-16.33 16-24.13 16zm0-2c5.63 0 12.25-.99 20.31-12H394v12h5.88z"/><path fill="#3a4355" d="M394 114.69l6 9.31h-10l-3-2.07h-16l-3 2.07h-10l6-9.31v-2.07c-8-9.31-28-14.48-28-14.48V94h58v20.69z"/><path fill="#3a4355" d="M392 104h7.22c3.9 0 20.34-1.17 24.78-8-8.88 13.67-16.33 16-24.13 16H392v-8zM371 90V65l6-15h4l6 15v25l-1 2h-14l-1-2z"/><path fill="#3a4355" d="M377 70v10h-56a5 5 0 1 1 0-10h56zm-2 8v-6h-54a3 3 0 0 0 0 6h54z"/><path fill="#3a4355" d="M317 74h55v5h-51.5l-3.19-2.42L317 74zM390 90l17.43-20L415 80l-25 10zM391 91.89L415.93 84l.07 8-25-.11zM389 87l14-20.05-9.48-4.95L389 87zM255.85 112h-7.89V96H280c-8.88 13.67-16.35 16-24.15 16zm0-2c5.64 0 12.27-.99 20.34-12h-26.22v12h5.88z"/><path fill="#3a4355" d="M249.97 114.69l6 9.31h-10l-3.01-2.07h-16.02l-3 2.07h-10.01l6-9.31v-2.07c-8-9.31-28.03-14.48-28.03-14.48V94h58.07v20.69z"/><path fill="#3a4355" d="M247.96 104h7.23c3.9 0 20.37-1.17 24.81-8-8.88 13.67-16.35 16-24.15 16h-7.89v-8zM229.77 67l11.1-2.79 2.13-3.53A67.37 67.37 0 0 0 188.83 9s-6.48 1-18.48 3.49L170 15.7c7.68 4.16 14.68 9.7 14.68 9.7a50.45 50.45 0 0 1 42 39.92l3.09 1.68z"/><path fill="#3a4355" d="M224.03 56.1l-44.7 23.37A5.07 5.07 0 0 1 172 75c0-.78.18-1.51.5-2.17l23.6-44.35 4.6-9.48 19.98 11.75L235 50.5l-10.97 5.6zm-45.65 21.6l44.72-23.37 8.9-4.54-12.72-17.53-17.71-10.42-3.67 7.57-23.58 44.3c-.2.4-.3.83-.3 1.29a3.02 3.02 0 0 0 4.36 2.7z"/><path fill="#3a4355" d="M173 76.48L206.65 33l12.48 6.71 5.87 14.3L177.43 79l-3.24-1.12-1.19-1.4zM111.88 112H104V96h32c-8.88 13.67-16.33 16-24.13 16zm0-2c5.63 0 12.25-.99 20.31-12H106v12h5.88z"/><path fill="#3a4355" d="M106 114.69l6 9.31h-10l-3-2.07H83L80 124H70l6-9.31v-2.07c-8-9.31-28-14.48-28-14.48V94h58v20.69z"/><path fill="#3a4355" d="M104 104h7.22c3.9 0 20.34-1.17 24.78-8-8.88 13.67-16.33 16-24.13 16H104v-8zM48 25H23L8 19v-4l15-6h25l2 1v14l-2 1z"/><path fill="#3a4355" d="M28 19h10v56a5 5 0 1 1-10 0V19zm8 2h-6v54a3 3 0 0 0 6 0V21z"/><path fill="#3a4355" d="M32 79V24h5v51.5l-2.42 3.19L32 79z"/></svg>
