<svg width="58" height="50" viewBox="0 0 58 50" fill="none" xmlns="http://www.w3.org/2000/svg">
<path d="M29.0005 39.2561C18.2873 34.0938 10.8755 23.1648 10.8755 10.4778C10.8755 9.65476 10.9364 8.84865 10.9984 8.04154C11.7206 7.54909 12.4677 7.09359 13.2279 6.65907C17.0227 11.1321 22.6745 13.978 28.9995 13.978V39.2561H29.0005Z" fill="#d53746"/>
<path d="M29.0015 9.38206C33.1 9.38206 36.686 7.23043 38.7208 4C39.7996 4.34562 40.8454 4.76016 41.8713 5.21366C38.9365 9.13234 34.2727 11.6805 28.9995 11.6805L29.0015 9.38206Z" fill="#242e42"/>
<path d="M29.0005 39.2561C39.7117 34.0938 47.1235 23.1638 47.1235 10.4778C47.1235 9.65476 47.0606 8.84865 47.0006 8.04154C46.2784 7.54909 45.5313 7.09359 44.7711 6.66006C40.9763 11.1321 35.3245 13.978 29.0015 13.978V39.2561H29.0005Z" fill="#aa2c38"/>
<path d="M29.0015 9.38206C24.903 9.38206 21.317 7.22944 19.2822 4C18.2034 4.34562 17.1556 4.76016 16.1297 5.21366C19.0645 9.13234 23.7283 11.6805 29.0015 11.6805V9.38206Z" fill="#3a4355"/>
<path d="M29.0005 45.9207L31.6016 44.6661C43.8022 38.7876 51.9661 26.7059 53 13.3597C52.102 12.3398 51.1401 11.3769 50.1192 10.4769C50.1192 10.4808 50.1202 10.4848 50.1202 10.4888C50.1202 23.8081 42.3398 36.1635 30.3021 41.9661L29.0005 42.5944V45.9207V45.9207Z" fill="#242e42"/>
<path d="M29.0005 45.9207L26.3984 44.6661C14.1988 38.7876 6.03386 26.7059 5 13.3607C5.89801 12.3398 6.85894 11.3769 7.87982 10.4779C7.87982 10.4818 7.87982 10.4848 7.87982 10.4888C7.87982 23.8081 15.6602 36.1655 27.6999 41.9661L29.0015 42.5944V45.9207H29.0005Z" fill="#3a4355"/>
</svg>
