<svg xmlns="http://www.w3.org/2000/svg" width="58" height="50" fill="none"><path fill="#fff" d="M29 39.26a31.93 31.93 0 0 1-18.12-28.78c0-.83.06-1.63.12-2.44.72-.5 1.47-.95 2.23-1.38A20.63 20.63 0 0 0 29 13.98v25.28zM29 37v2.26a31.94 31.94 0 0 0 18.12-28.78c0-.79-.05-1.56-.11-2.33v-.1c-.73-.5-1.48-.96-2.24-1.39A20.63 20.63 0 0 1 29 13.98v2a22.4 22.4 0 0 0 16.08-6.7A29.6 29.6 0 0 1 29 37z"/><path fill="#fff" fill-rule="evenodd" d="M19.28 4A11.47 11.47 0 0 0 29 9.38v2.3c-5.27 0-9.94-2.55-12.87-6.47A31.8 31.8 0 0 1 19.28 4zM29 11.68v-2.3c4.1 0 7.69-2.15 9.72-5.38 1.08.35 2.13.76 3.15 1.21A16.05 16.05 0 0 1 29 11.68z" clip-rule="evenodd"/><path fill="#fff" d="M31.6 44.67L29 45.92l-2.6-1.25A38.2 38.2 0 0 1 5 13.37c.9-1.03 1.86-2 2.88-2.9v.02A35.15 35.15 0 0 0 27.7 41.97l1.3.62 1.3-.62a35.16 35.16 0 0 0 19.82-31.48v-.01A32.3 32.3 0 0 1 53 13.36a38.2 38.2 0 0 1-21.4 31.3z"/></svg>