<svg xmlns="http://www.w3.org/2000/svg" width="58" height="50" viewBox="0 0 58 50"><path fill="#D53746" d="M29 39.26a31.93 31.93 0 01-18.12-28.78c0-.83.06-1.63.12-2.44.72-.5 1.47-.95 2.23-1.38A20.63 20.63 0 0029 13.98v25.28zM29 9.38c4.1 0 7.69-2.15 9.72-5.38 1.08.35 2.13.76 3.15 1.21A16.05 16.05 0 0129 11.68v-2.3z"/><path fill="#7A1F27" d="M29 39.26a31.94 31.94 0 0018.12-28.78c0-.83-.06-1.63-.12-2.44-.72-.5-1.47-.95-2.23-1.38A20.63 20.63 0 0129 13.98v25.28z"/><path fill="#D53746" d="M29 9.38c-4.1 0-7.68-2.15-9.72-5.38a31.8 31.8 0 00-3.15 1.21A16.05 16.05 0 0029 11.68v-2.3zM29 45.92l2.6-1.25A38.2 38.2 0 0053 13.36a32.28 32.28 0 00-2.88-2.88A35.16 35.16 0 0130.3 41.98l-1.3.62v3.33z"/><path fill="#D53746" d="M29 45.92l-2.6-1.25A38.2 38.2 0 015 13.37c.9-1.03 1.86-2 2.88-2.9v.02A35.15 35.15 0 0027.7 41.97l1.3.62v3.33z"/></svg>