<svg width="186" height="50" viewBox="0 0 186 50" fill="none" xmlns="http://www.w3.org/2000/svg">
<path d="M29.0005 39.2561C18.2873 34.0938 10.8755 23.1648 10.8755 10.4778C10.8755 9.65476 10.9364 8.84865 10.9984 8.04154C11.7206 7.54909 12.4677 7.09359 13.2279 6.65907C17.0227 11.1321 22.6745 13.978 28.9995 13.978V39.2561H29.0005Z" fill="#d53746"/>
<path d="M29.0015 9.38206C33.1 9.38206 36.686 7.23043 38.7208 4C39.7996 4.34562 40.8454 4.76016 41.8713 5.21366C38.9365 9.13234 34.2727 11.6805 28.9995 11.6805L29.0015 9.38206Z" fill="#242e42"/>
<path d="M29.0005 39.2561C39.7117 34.0938 47.1235 23.1638 47.1235 10.4778C47.1235 9.65476 47.0606 8.84865 47.0006 8.04154C46.2784 7.54909 45.5313 7.09359 44.7711 6.66006C40.9763 11.1321 35.3245 13.978 29.0015 13.978V39.2561H29.0005Z" fill="#aa2c38"/>
<path d="M29.0015 9.38206C24.903 9.38206 21.317 7.22944 19.2822 4C18.2034 4.34562 17.1556 4.76016 16.1297 5.21366C19.0645 9.13234 23.7283 11.6805 29.0015 11.6805V9.38206Z" fill="#3a4355"/>
<path d="M29.0005 45.9207L31.6016 44.6661C43.8022 38.7876 51.9661 26.7059 53 13.3597C52.102 12.3398 51.1401 11.3769 50.1192 10.4769C50.1192 10.4808 50.1202 10.4848 50.1202 10.4888C50.1202 23.8081 42.3398 36.1635 30.3021 41.9661L29.0005 42.5944V45.9207Z" fill="#242e42"/>
<path d="M29.0005 45.9207L26.3984 44.6661C14.1988 38.7876 6.03386 26.7059 5 13.3607C5.89801 12.3398 6.85894 11.3769 7.87982 10.4779C7.87982 10.4818 7.87982 10.4848 7.87982 10.4888C7.87982 23.8081 15.6602 36.1655 27.6999 41.9661L29.0015 42.5944V45.9207H29.0005Z" fill="#3a4355"/>
<path d="M62.6877 19V6.04492H64.8323V19H62.6877ZM66.9592 12.707L71.4592 19H69.0159L65.553 13.9023V11.3359L68.6995 6.04492H71.1077L66.9592 12.707ZM75.5887 12.4609C75.5887 11.418 75.7117 10.498 75.9578 9.70117C76.2156 8.89258 76.5672 8.21289 77.0125 7.66211C77.4695 7.09961 78.0027 6.67187 78.6121 6.37891C79.2332 6.07422 79.907 5.89844 80.6336 5.85156V7.60938C80.2352 7.65625 79.8602 7.7793 79.5086 7.97852C79.157 8.17773 78.8524 8.4707 78.5945 8.85742C78.3367 9.24414 78.1317 9.73633 77.9793 10.334C77.827 10.9316 77.7449 11.6406 77.7332 12.4609C77.7449 13.293 77.827 14.0078 77.9793 14.6055C78.1317 15.1914 78.3367 15.6836 78.5945 16.082C78.8641 16.4805 79.1746 16.7852 79.5262 16.9961C79.8777 17.1953 80.2469 17.3125 80.6336 17.3477V19.0879C79.9188 19.041 79.2508 18.8711 78.6297 18.5781C78.0086 18.2734 77.4695 17.8457 77.0125 17.2949C76.5672 16.7324 76.2156 16.0469 75.9578 15.2383C75.7117 14.4297 75.5887 13.5039 75.5887 12.4609ZM81.3367 5.85156C82.0516 5.88672 82.7137 6.05664 83.3231 6.36133C83.9442 6.66602 84.4774 7.09961 84.9227 7.66211C85.3797 8.21289 85.7371 8.89258 85.9949 9.70117C86.2527 10.498 86.3817 11.418 86.3817 12.4609C86.3817 13.5039 86.2527 14.4297 85.9949 15.2383C85.7371 16.0469 85.3797 16.7324 84.9227 17.2949C84.4774 17.8457 83.95 18.2734 83.3406 18.5781C82.7313 18.8711 82.0633 19.041 81.3367 19.0879V17.3477C81.7352 17.3008 82.1102 17.1777 82.4617 16.9785C82.8133 16.7676 83.118 16.4688 83.3758 16.082C83.6336 15.6836 83.8387 15.1914 83.991 14.6055C84.1434 14.0078 84.2254 13.293 84.2371 12.4609C84.2254 11.6289 84.1434 10.9199 83.991 10.334C83.8387 9.73633 83.6277 9.24414 83.3582 8.85742C83.1004 8.45898 82.7957 8.16016 82.4442 7.96094C82.0926 7.75 81.7234 7.62695 81.3367 7.5918V5.85156ZM90.2299 6.04492H92.6381L95.3627 16.2051V19.0703H94.2552L90.2299 6.04492ZM98.8256 6.04492H101.216L96.9974 19.0703H96.0834V15.6426L98.8256 6.04492ZM115.91 19H113.73L110.373 9.29688L106.98 19H104.783L109.318 6.0625H111.41L115.91 19ZM111.533 14.8867L112.043 16.3105H108.685L109.178 14.8867H111.533ZM112.008 2.30078L110.092 4.79688H108.685L109.863 2.30078H112.008ZM127.387 8.54102C127.118 8.23633 126.831 8.00781 126.526 7.85547C126.221 7.70313 125.893 7.61523 125.541 7.5918V5.85156C126.854 5.91016 127.956 6.37305 128.846 7.24023L127.387 8.54102ZM125.541 17.3477C125.893 17.3125 126.221 17.2188 126.526 17.0664C126.842 16.9141 127.129 16.6914 127.387 16.3984L128.846 17.6816C128.401 18.1152 127.903 18.4492 127.352 18.6836C126.801 18.918 126.198 19.0527 125.541 19.0879V17.3477ZM119.846 12.4609C119.846 11.418 119.969 10.498 120.215 9.70117C120.473 8.9043 120.825 8.23047 121.27 7.67969C121.715 7.12891 122.237 6.70117 122.834 6.39648C123.444 6.0918 124.106 5.91016 124.821 5.85156V7.60938C124.434 7.66797 124.071 7.80273 123.731 8.01367C123.391 8.21289 123.092 8.50586 122.834 8.89258C122.577 9.2793 122.372 9.77148 122.219 10.3691C122.079 10.9551 122.002 11.6523 121.991 12.4609C122.002 13.2812 122.079 13.9844 122.219 14.5703C122.372 15.1562 122.577 15.6484 122.834 16.0469C123.092 16.4453 123.391 16.75 123.731 16.9609C124.083 17.1719 124.446 17.3008 124.821 17.3477V19.0703C124.106 19.0234 123.444 18.8477 122.834 18.543C122.237 18.2383 121.715 17.8105 121.27 17.2598C120.825 16.709 120.473 16.0352 120.215 15.2383C119.969 14.4297 119.846 13.5039 119.846 12.4609ZM139.269 8.04883C139.21 8.02539 139.14 7.98438 139.058 7.92578C138.976 7.86719 138.858 7.81445 138.706 7.76758C138.554 7.70898 138.36 7.66211 138.126 7.62695C137.892 7.5918 137.593 7.58594 137.23 7.60938V5.83398C137.745 5.8457 138.267 5.9043 138.794 6.00977C139.333 6.10352 139.767 6.25586 140.095 6.4668C140.024 6.61914 139.942 6.78906 139.849 6.97656C139.755 7.15234 139.667 7.32227 139.585 7.48633C139.503 7.63867 139.433 7.76758 139.374 7.87305C139.315 7.97852 139.28 8.03711 139.269 8.04883ZM133.204 9.45508C133.204 8.93945 133.292 8.47656 133.468 8.06641C133.644 7.65625 133.878 7.29883 134.171 6.99414C134.476 6.67773 134.827 6.43164 135.226 6.25586C135.636 6.06836 136.064 5.94531 136.509 5.88672V7.73242C136.134 7.86133 135.823 8.08984 135.577 8.41797C135.331 8.73438 135.208 9.05664 135.208 9.38477C135.208 9.8418 135.331 10.2109 135.577 10.4922C135.823 10.7734 136.134 11.0195 136.509 11.2305V13.2344C136.122 13.0469 135.735 12.8477 135.349 12.6367C134.962 12.4141 134.61 12.1562 134.294 11.8633C133.978 11.5703 133.714 11.2305 133.503 10.8438C133.304 10.457 133.204 9.99414 133.204 9.45508ZM133.485 16.627C133.649 16.7207 133.855 16.8145 134.101 16.9082C134.358 16.9902 134.622 17.0723 134.892 17.1543C135.161 17.2246 135.431 17.2832 135.7 17.3301C135.97 17.377 136.222 17.4004 136.456 17.4004H136.509V19.0703H136.474C136.192 19.0703 135.899 19.0527 135.595 19.0176C135.302 18.9941 135.003 18.9473 134.698 18.877C134.394 18.8066 134.101 18.7129 133.819 18.5957C133.55 18.4668 133.315 18.3145 133.116 18.1387L133.485 16.627ZM137.23 11.582C137.616 11.7578 138.009 11.9453 138.407 12.1445C138.817 12.3438 139.187 12.5898 139.515 12.8828C139.843 13.1641 140.112 13.5098 140.323 13.9199C140.534 14.3301 140.64 14.8398 140.64 15.4492C140.64 15.8711 140.558 16.2812 140.394 16.6797C140.241 17.0781 140.019 17.4414 139.726 17.7695C139.444 18.0859 139.093 18.3555 138.671 18.5781C138.249 18.8008 137.769 18.9473 137.23 19.0176V17.3301C138.19 17.0957 138.671 16.457 138.671 15.4141C138.671 15.0039 138.536 14.6641 138.267 14.3945C137.997 14.125 137.651 13.873 137.23 13.6387V11.582ZM144.013 12.4609C144.013 11.418 144.136 10.498 144.382 9.70117C144.64 8.89258 144.992 8.21289 145.437 7.66211C145.894 7.09961 146.427 6.67187 147.037 6.37891C147.658 6.07422 148.332 5.89844 149.058 5.85156V7.60938C148.66 7.65625 148.285 7.7793 147.933 7.97852C147.582 8.17773 147.277 8.4707 147.019 8.85742C146.761 9.24414 146.556 9.73633 146.404 10.334C146.252 10.9316 146.17 11.6406 146.158 12.4609C146.17 13.293 146.252 14.0078 146.404 14.6055C146.556 15.1914 146.761 15.6836 147.019 16.082C147.289 16.4805 147.599 16.7852 147.951 16.9961C148.302 17.1953 148.671 17.3125 149.058 17.3477V19.0879C148.343 19.041 147.675 18.8711 147.054 18.5781C146.433 18.2734 145.894 17.8457 145.437 17.2949C144.992 16.7324 144.64 16.0469 144.382 15.2383C144.136 14.4297 144.013 13.5039 144.013 12.4609ZM149.761 5.85156C150.476 5.88672 151.138 6.05664 151.748 6.36133C152.369 6.66602 152.902 7.09961 153.347 7.66211C153.804 8.21289 154.162 8.89258 154.42 9.70117C154.677 10.498 154.806 11.418 154.806 12.4609C154.806 13.5039 154.677 14.4297 154.42 15.2383C154.162 16.0469 153.804 16.7324 153.347 17.2949C152.902 17.8457 152.375 18.2734 151.765 18.5781C151.156 18.8711 150.488 19.041 149.761 19.0879V17.3477C150.16 17.3008 150.535 17.1777 150.886 16.9785C151.238 16.7676 151.543 16.4688 151.8 16.082C152.058 15.6836 152.263 15.1914 152.416 14.6055C152.568 14.0078 152.65 13.293 152.662 12.4609C152.65 11.6289 152.568 10.9199 152.416 10.334C152.263 9.73633 152.052 9.24414 151.783 8.85742C151.525 8.45898 151.22 8.16016 150.869 7.96094C150.517 7.75 150.148 7.62695 149.761 7.5918V5.85156ZM161.379 6.04492V17.4004H167.338V19H159.235V6.04492H161.379ZM180.063 6.04492V7.48633H176.196V19H174.069V7.48633H170.202V6.04492H180.063ZM62.6526 29.0449H64.762V42H62.6526V29.0449ZM66.3792 29.0449C66.9299 29.0449 67.4749 29.1328 68.0139 29.3086C68.553 29.4844 69.0334 29.748 69.4553 30.0996C69.8889 30.4512 70.2346 30.8789 70.4924 31.3828C70.762 31.875 70.8967 32.4316 70.8967 33.0527C70.8967 33.709 70.7854 34.3066 70.5627 34.8457C70.3401 35.373 70.0295 35.8184 69.6311 36.1816C69.2327 36.5449 68.7522 36.8262 68.1897 37.0254C67.6272 37.2246 67.0061 37.3242 66.3264 37.3242H65.4827V35.7773H66.6956C66.9534 35.7773 67.2053 35.7363 67.4514 35.6543C67.7092 35.5605 67.9436 35.4141 68.1545 35.2148C68.3655 35.0156 68.5354 34.7402 68.6643 34.3887C68.7932 34.0254 68.8577 33.5801 68.8577 33.0527C68.8577 32.8418 68.8284 32.6016 68.7698 32.332C68.7112 32.0508 68.5881 31.7871 68.4006 31.541C68.2249 31.2832 67.9729 31.0723 67.6448 30.9082C67.3167 30.7324 66.8831 30.6445 66.344 30.6445H65.4827V29.0449H66.3792ZM74.4813 35.4609C74.4813 34.418 74.6043 33.498 74.8504 32.7012C75.1082 31.8926 75.4598 31.2129 75.9051 30.6621C76.3621 30.0996 76.8953 29.6719 77.5047 29.3789C78.1258 29.0742 78.7996 28.8984 79.5262 28.8516V30.6094C79.1277 30.6562 78.7527 30.7793 78.4012 30.9785C78.0496 31.1777 77.7449 31.4707 77.4871 31.8574C77.2293 32.2441 77.0242 32.7363 76.8719 33.334C76.7195 33.9316 76.6375 34.6406 76.6258 35.4609C76.6375 36.293 76.7195 37.0078 76.8719 37.6055C77.0242 38.1914 77.2293 38.6836 77.4871 39.082C77.7567 39.4805 78.0672 39.7852 78.4188 39.9961C78.7703 40.1953 79.1395 40.3125 79.5262 40.3477V42.0879C78.8113 42.041 78.1434 41.8711 77.5223 41.5781C76.9012 41.2734 76.3621 40.8457 75.9051 40.2949C75.4598 39.7324 75.1082 39.0469 74.8504 38.2383C74.6043 37.4297 74.4813 36.5039 74.4813 35.4609ZM80.2293 28.8516C80.9442 28.8867 81.6063 29.0566 82.2156 29.3613C82.8367 29.666 83.3699 30.0996 83.8152 30.6621C84.2723 31.2129 84.6297 31.8926 84.8875 32.7012C85.1453 33.498 85.2742 34.418 85.2742 35.4609C85.2742 36.5039 85.1453 37.4297 84.8875 38.2383C84.6297 39.0469 84.2723 39.7324 83.8152 40.2949C83.3699 40.8457 82.8426 41.2734 82.2332 41.5781C81.6238 41.8711 80.9559 42.041 80.2293 42.0879V40.3477C80.6277 40.3008 81.0027 40.1777 81.3543 39.9785C81.7059 39.7676 82.0106 39.4688 82.2684 39.082C82.5262 38.6836 82.7313 38.1914 82.8836 37.6055C83.0359 37.0078 83.118 36.293 83.1297 35.4609C83.118 34.6289 83.0359 33.9199 82.8836 33.334C82.7313 32.7363 82.5203 32.2441 82.2508 31.8574C81.993 31.459 81.6883 31.1602 81.3367 30.9609C80.9852 30.75 80.616 30.627 80.2293 30.5918V28.8516ZM81.5301 25.3008L79.6141 27.7969H78.2078L79.3856 25.3008H81.5301ZM91.847 29.0449V40.4004H97.806V42H89.7025V29.0449H91.847ZM101.127 35.4609C101.127 34.418 101.25 33.498 101.496 32.7012C101.754 31.8926 102.105 31.2129 102.551 30.6621C103.008 30.0996 103.541 29.6719 104.15 29.3789C104.771 29.0742 105.445 28.8984 106.172 28.8516V30.6094C105.773 30.6562 105.398 30.7793 105.047 30.9785C104.695 31.1777 104.391 31.4707 104.133 31.8574C103.875 32.2441 103.67 32.7363 103.518 33.334C103.365 33.9316 103.283 34.6406 103.271 35.4609C103.283 36.293 103.365 37.0078 103.518 37.6055C103.67 38.1914 103.875 38.6836 104.133 39.082C104.402 39.4805 104.713 39.7852 105.064 39.9961C105.416 40.1953 105.785 40.3125 106.172 40.3477V42.0879C105.457 42.041 104.789 41.8711 104.168 41.5781C103.547 41.2734 103.008 40.8457 102.551 40.2949C102.105 39.7324 101.754 39.0469 101.496 38.2383C101.25 37.4297 101.127 36.5039 101.127 35.4609ZM106.875 28.8516C107.59 28.8867 108.252 29.0566 108.861 29.3613C109.482 29.666 110.016 30.0996 110.461 30.6621C110.918 31.2129 111.275 31.8926 111.533 32.7012C111.791 33.498 111.92 34.418 111.92 35.4609C111.92 36.5039 111.791 37.4297 111.533 38.2383C111.275 39.0469 110.918 39.7324 110.461 40.2949C110.016 40.8457 109.488 41.2734 108.879 41.5781C108.269 41.8711 107.601 42.041 106.875 42.0879V40.3477C107.273 40.3008 107.648 40.1777 108 39.9785C108.351 39.7676 108.656 39.4688 108.914 39.082C109.172 38.6836 109.377 38.1914 109.529 37.6055C109.682 37.0078 109.764 36.293 109.775 35.4609C109.764 34.6289 109.682 33.9199 109.529 33.334C109.377 32.7363 109.166 32.2441 108.896 31.8574C108.639 31.459 108.334 31.1602 107.982 30.9609C107.631 30.75 107.262 30.627 106.875 30.5918V28.8516ZM108.176 25.3008L106.26 27.7969H104.853L106.031 25.3008H108.176Z" fill="#242e42"/>
</svg>
