<svg xmlns="http://www.w3.org/2000/svg" width="1122" height="186" fill="none"><path fill="#fff" d="M141 .75v20.5H86V185H55.75V21.25h-55V.75H141zm36.5 0H208V185h-30.5V.75zM285 102h-66.75V81.5H285V102zm-66.75 60.25h74.5V185h-74.5v-22.75zM292.75.75V23.5h-74.5V.75h74.5zm40.5 0h30V185h-30V.75zm125 184.25H426.5l-34.75-66.75c-.5 0-1.08.08-1.75.25h-16.5v-22h17c3.67 0 7.33-.58 11-1.75 3.67-1.33 7-3.42 10-6.25s5.42-6.75 7.25-11.75c1.83-5.17 2.75-11.5 2.75-19 0-3-.42-6.42-1.25-10.25-.83-4-2.58-7.75-5.25-11.25-2.5-3.67-6.08-6.67-10.75-9-4.67-2.5-10.83-3.75-18.5-3.75H373.5V.75h12.75c7.83 0 15.58 1.25 23.25 3.75A61.44 61.44 0 0 1 430 15.75 56.13 56.13 0 0 1 444.75 34c3.83 7 5.75 14.92 5.75 23.75 0 13.33-3.08 24.67-9.25 34a55.46 55.46 0 0 1-25 20.75l42 72.5zM490.75.75H525l38.75 144.5V186H548L490.75.75zM613 .75h34L587 186h-13v-48.75L613 .75zm72.25 0h30.5V185h-30.5V.75zM792.75 102H726V81.5h66.75V102zM726 162.25h74.5V185H726v-22.75zM800.5.75V23.5H726V.75h74.5zm160 0V25l-87.75 131.75-5 4h92.75V185H838v-24.25L925.75 29l5.25-4h-93V.75h122.5zm161.25 0V25L1034 156.75l-5 4h92.75V185h-122.5v-24.25L1087 29l5.25-4h-93V.75h122.5z"/></svg>